<?xml version="1.0" encoding="utf-8"?>
<!-- Generator: Adobe Illustrator 25.0.1, SVG Export Plug-In . SVG Version: 6.00 Build 0)  -->
<svg version="1.1" id="Слой_1" xmlns="http://www.w3.org/2000/svg" xmlns:xlink="http://www.w3.org/1999/xlink" x="0px" y="0px"
	 viewBox="0 0 32 48" style="enable-background:new 0 0 32 48;" xml:space="preserve">
<style type="text/css">
	.st0{fill:#808080;}
</style>
<path class="st0" d="M30,24.2L30,24.2l-7-12.1L16,0L9,12.1L2,24.2l0,0C-2.3,32,0.5,41.7,8.3,46s17.5,1.5,21.7-6.3
	C32.7,34.9,32.7,29.1,30,24.2z M15,43C8.9,43,4,38.1,4,32c0-3.5,1.7-6.8,4.6-8.9C5.1,28,6.2,34.9,11.2,38.4c3.8,2.7,8.9,2.7,12.8,0
	C21.9,41.3,18.5,43,15,43z"/>
</svg>
